<svg width="111" height="22" viewBox="0 0 111 22" fill="none" xmlns="http://www.w3.org/2000/svg">
<g clip-path="url(#clip0_964_7912)">
<path d="M20.6311 8.41231C20.5734 8.2425 20.4673 8.09329 20.3258 7.9831C20.1843 7.87291 20.0137 7.80657 19.8349 7.79226L14.6057 7.37675L12.3429 2.36774C12.2709 2.20641 12.1536 2.06938 12.0054 1.9732C11.8572 1.87701 11.6843 1.82578 11.5076 1.82568C11.3309 1.82559 11.158 1.87663 11.0097 1.97265C10.8613 2.06867 10.744 2.20557 10.6717 2.36682L8.40891 7.37675L3.17976 7.79226C3.00407 7.80618 2.8361 7.87042 2.69597 7.9773C2.55583 8.08417 2.44945 8.22916 2.38955 8.39491C2.32966 8.56066 2.31878 8.74016 2.35823 8.91193C2.39768 9.0837 2.48578 9.24047 2.61199 9.36348L6.4763 13.1306L5.10962 19.0486C5.06812 19.2277 5.08142 19.4152 5.14779 19.5866C5.21417 19.7581 5.33055 19.9057 5.48183 20.0102C5.63312 20.1147 5.81233 20.1714 5.9962 20.1728C6.18008 20.1742 6.36013 20.1203 6.51299 20.0181L11.5073 16.6885L16.5017 20.0181C16.6579 20.1218 16.8422 20.1752 17.0297 20.1711C17.2171 20.167 17.3989 20.1056 17.5504 19.9951C17.702 19.8846 17.816 19.7304 17.8773 19.5531C17.9386 19.3759 17.9441 19.1841 17.8931 19.0036L16.2155 13.1333L20.3761 9.38917C20.6485 9.14335 20.7485 8.75994 20.6311 8.41231Z" fill="#F3CD03"/>
<path d="M42.6447 8.41231C42.5871 8.2425 42.481 8.09329 42.3395 7.9831C42.198 7.87291 42.0273 7.80657 41.8486 7.79226L36.6194 7.37675L34.3566 2.36774C34.2845 2.20641 34.1673 2.06938 34.0191 1.9732C33.8709 1.87701 33.698 1.82578 33.5213 1.82568C33.3446 1.82559 33.1717 1.87663 33.0233 1.97265C32.875 2.06867 32.7576 2.20557 32.6854 2.36682L30.4226 7.37675L25.1934 7.79226C25.0177 7.80618 24.8498 7.87042 24.7096 7.9773C24.5695 8.08417 24.4631 8.22916 24.4032 8.39491C24.3433 8.56066 24.3325 8.74016 24.3719 8.91193C24.4114 9.0837 24.4995 9.24047 24.6257 9.36348L28.49 13.1306L27.1233 19.0486C27.0818 19.2277 27.0951 19.4152 27.1615 19.5866C27.2278 19.7581 27.3442 19.9057 27.4955 20.0102C27.6468 20.1147 27.826 20.1714 28.0099 20.1728C28.1937 20.1742 28.3738 20.1203 28.5267 20.0181L33.521 16.6885L38.5153 20.0181C38.6716 20.1218 38.8558 20.1752 39.0433 20.1711C39.2308 20.167 39.4126 20.1056 39.5641 19.9951C39.7156 19.8846 39.8297 19.7304 39.891 19.5531C39.9522 19.3759 39.9578 19.1841 39.9068 19.0036L38.2292 13.1333L42.3897 9.38917C42.6622 9.14335 42.7621 8.75994 42.6447 8.41231Z" fill="#F3CD03"/>
<path d="M64.6555 8.41231C64.5978 8.2425 64.4917 8.09329 64.3502 7.9831C64.2087 7.87291 64.0381 7.80657 63.8593 7.79226L58.6302 7.37675L56.3673 2.36774C56.2953 2.20641 56.1781 2.06938 56.0298 1.9732C55.8816 1.87701 55.7087 1.82578 55.532 1.82568C55.3553 1.82559 55.1824 1.87663 55.0341 1.97265C54.8857 2.06867 54.7684 2.20557 54.6961 2.36682L52.4333 7.37675L47.2042 7.79226C47.0285 7.80618 46.8605 7.87042 46.7204 7.9773C46.5802 8.08417 46.4739 8.22916 46.414 8.39491C46.3541 8.56066 46.3432 8.74016 46.3826 8.91193C46.4221 9.0837 46.5102 9.24047 46.6364 9.36348L50.5007 13.1306L49.134 19.0486C49.0925 19.2277 49.1058 19.4152 49.1722 19.5866C49.2386 19.7581 49.355 19.9057 49.5062 20.0102C49.6575 20.1147 49.8367 20.1714 50.0206 20.1728C50.2045 20.1742 50.3845 20.1203 50.5374 20.0181L55.5317 16.6885L60.5261 20.0181C60.6823 20.1218 60.8666 20.1752 61.0541 20.1711C61.2416 20.167 61.4233 20.1056 61.5748 19.9951C61.7264 19.8846 61.8405 19.7304 61.9017 19.5531C61.963 19.3759 61.9685 19.1841 61.9175 19.0036L60.2399 13.1333L64.4005 9.38917C64.6729 9.14335 64.7729 8.75994 64.6555 8.41231Z" fill="#F3CD03"/>
<path d="M86.6721 8.41231C86.6144 8.2425 86.5083 8.09329 86.3668 7.9831C86.2253 7.87291 86.0547 7.80657 85.8759 7.79226L80.6468 7.37675L78.3839 2.36774C78.3119 2.20641 78.1947 2.06938 78.0464 1.9732C77.8982 1.87701 77.7253 1.82578 77.5486 1.82568C77.3719 1.82559 77.199 1.87663 77.0507 1.97265C76.9023 2.06867 76.785 2.20557 76.7127 2.36682L74.4499 7.37675L69.2208 7.79226C69.0451 7.80618 68.8771 7.87042 68.737 7.9773C68.5968 8.08417 68.4905 8.22916 68.4306 8.39491C68.3707 8.56066 68.3598 8.74016 68.3992 8.91193C68.4387 9.0837 68.5268 9.24047 68.653 9.36348L72.5173 13.1306L71.1506 19.0486C71.1091 19.2277 71.1224 19.4152 71.1888 19.5866C71.2552 19.7581 71.3716 19.9057 71.5228 20.0102C71.6741 20.1147 71.8533 20.1714 72.0372 20.1728C72.2211 20.1742 72.4011 20.1203 72.554 20.0181L77.5483 16.6885L82.5427 20.0181C82.6989 20.1218 82.8832 20.1752 83.0707 20.1711C83.2582 20.167 83.4399 20.1056 83.5914 19.9951C83.743 19.8846 83.8571 19.7304 83.9183 19.5531C83.9796 19.3759 83.9851 19.1841 83.9341 19.0036L82.2565 13.1333L86.4171 9.38917C86.6895 9.14335 86.7895 8.75994 86.6721 8.41231Z" fill="#F3CD03"/>
<path d="M94.5319 13.1306L93.1652 19.0486C93.1229 19.2278 93.1356 19.4156 93.2017 19.5875C93.2677 19.7593 93.3841 19.9073 93.5356 20.012C93.687 20.1167 93.8666 20.1733 94.0507 20.1744C94.2348 20.1755 94.415 20.121 94.5677 20.0181L99.562 16.6885L104.556 20.0181C104.713 20.1218 104.897 20.1752 105.084 20.1711C105.272 20.167 105.454 20.1056 105.605 19.9951C105.757 19.8846 105.871 19.7304 105.932 19.5531C105.993 19.3759 105.999 19.1841 105.948 19.0036L104.27 13.1333L108.431 9.3892C108.564 9.26921 108.659 9.1128 108.704 8.9393C108.75 8.76581 108.743 8.58284 108.686 8.41302C108.628 8.24321 108.522 8.09399 108.38 7.98383C108.239 7.87367 108.068 7.8074 107.89 7.79321L102.66 7.37678L100.398 2.36777C100.325 2.20648 100.208 2.06952 100.06 1.97341C99.9116 1.87731 99.7387 1.82617 99.562 1.82617C99.3853 1.82617 99.2124 1.87731 99.0641 1.97341C98.9159 2.06952 98.7986 2.20648 98.7264 2.36777L96.4636 7.37678L91.2344 7.79229C91.0588 7.80621 90.8908 7.87045 90.7507 7.97733C90.6105 8.0842 90.5041 8.22919 90.4442 8.39494C90.3843 8.56069 90.3735 8.74019 90.4129 8.91196C90.4524 9.08373 90.5405 9.2405 90.6667 9.36351L94.5319 13.1306ZM97.1488 9.16264C97.3125 9.14974 97.4697 9.09304 97.604 8.99847C97.7383 8.9039 97.8446 8.77495 97.9119 8.62514L99.562 4.97363L101.212 8.62514C101.279 8.77495 101.386 8.9039 101.52 8.99847C101.654 9.09304 101.812 9.14974 101.975 9.16264L105.619 9.45157L102.618 12.1519C102.358 12.3867 102.254 12.7481 102.349 13.0856L103.499 17.1077L100.072 14.8229C99.9216 14.7219 99.7445 14.668 99.5634 14.668C99.3822 14.668 99.2052 14.7219 99.0548 14.8229L95.4739 17.2105L96.437 13.0407C96.4723 12.8873 96.4676 12.7275 96.4232 12.5765C96.3789 12.4255 96.2965 12.2884 96.1838 12.1785L93.3973 9.46166L97.1488 9.16264Z" fill="#F3CD03"/>
</g>
<defs>
<clipPath id="clip0_964_7912">
<rect width="110.068" height="22" fill="white" transform="translate(0.5)"/>
</clipPath>
</defs>
</svg>
